<svg width="337" height="337" viewBox="0 0 337 337" fill="none" xmlns="http://www.w3.org/2000/svg">
<rect width="337" height="337" fill="#F1F1F1" fill-opacity="0.9"/>
<path d="M169 179C138.67 179 114 154.33 114 124C114 93.67 138.67 69 169 69C199.33 69 224 93.67 224 124C224 154.33 199.33 179 169 179ZM169 79C144.19 79 124 99.19 124 124C124 148.81 144.19 169 169 169C193.81 169 214 148.81 214 124C214 99.19 193.81 79 169 79ZM249 269H169H89C80.73 269 74 262.27 74 254C74 253.32 74.14 237.15 86.25 221C93.3 211.6 102.95 204.13 114.94 198.81C129.58 192.3 147.77 189 169 189C190.23 189 208.42 192.3 223.06 198.81C235.05 204.14 244.7 211.6 251.75 221C263.86 237.15 264 253.32 264 254C264 262.27 257.27 269 249 269ZM169 199C134.13 199 108.4 208.53 94.59 226.56C84.24 240.07 84.01 253.88 84 254.02C84.0053 255.343 84.5344 256.609 85.4715 257.543C86.4086 258.476 87.6774 259 89 259H249C250.326 259 251.598 258.473 252.536 257.536C253.473 256.598 254 255.326 254 254C254 253.88 253.77 240.07 243.41 226.56C229.59 208.53 203.86 199 169 199Z" fill="#828C94" fill-opacity="0.94"/>
</svg>
