<svg xmlns="http://www.w3.org/2000/svg" xmlns:xlink="http://www.w3.org/1999/xlink" width="500" zoomAndPan="magnify" viewBox="0 0 375 374.999991" height="500" preserveAspectRatio="xMidYMid meet" version="1.0"><defs><g/><clipPath id="d1c0dec858"><path d="M 37.628906 37.5 L 337.386719 37.5 L 337.386719 337.261719 L 37.628906 337.261719 Z M 37.628906 37.5 " clip-rule="nonzero"/></clipPath></defs><g clip-path="url(#d1c0dec858)"><path fill="#fff" d="M 187.507812 337.261719 C 147.492188 337.261719 109.8125 321.683594 81.539062 293.351562 C 53.203125 265.074219 37.628906 227.394531 37.628906 187.378906 C 37.628906 147.363281 53.203125 109.683594 81.539062 81.410156 C 109.8125 53.074219 147.492188 37.5 187.507812 37.5 C 227.523438 37.5 265.203125 53.074219 293.476562 81.410156 C 321.8125 109.746094 337.386719 147.363281 337.386719 187.378906 C 337.386719 227.394531 321.8125 265.074219 293.476562 293.351562 C 265.203125 321.683594 227.523438 337.261719 187.507812 337.261719 M 187.507812 46.484375 C 149.886719 46.484375 114.484375 61.164062 87.886719 87.757812 C 61.289062 114.355469 46.613281 149.761719 46.613281 187.378906 C 46.613281 225 61.289062 260.402344 87.886719 287 C 114.484375 313.597656 149.886719 328.273438 187.507812 328.273438 C 225.128906 328.273438 260.53125 313.597656 287.128906 287 C 313.726562 260.402344 328.402344 225 328.402344 187.378906 C 328.402344 149.761719 313.726562 114.355469 287.128906 87.757812 C 260.53125 61.164062 225.128906 46.484375 187.507812 46.484375 " fill-opacity="1" fill-rule="nonzero"/></g><g fill="#fff" fill-opacity="1"><g transform="translate(68.641887, 222.167084)"><g><path d="M 40.207031 0.300781 C 44.921875 0.300781 49.433594 -0.601562 53.542969 -2.304688 C 54.644531 0.199219 56.050781 2.605469 57.753906 4.8125 C 54.847656 2.808594 51.4375 1.804688 47.828125 1.804688 C 43.113281 1.804688 38.703125 3.609375 35.292969 7.019531 L 34.191406 8.121094 C 27.472656 14.839844 19.152344 17.347656 15.640625 13.835938 C 15.542969 13.738281 15.339844 13.738281 15.242188 13.835938 C 15.140625 13.9375 15.140625 14.136719 15.242188 14.238281 C 18.75 17.648438 23.261719 19.453125 27.773438 19.453125 C 32.285156 19.453125 36.898438 17.648438 40.308594 14.238281 L 41.410156 13.136719 C 48.128906 6.417969 56.449219 3.808594 60.058594 7.417969 C 60.058594 7.417969 60.160156 7.417969 60.261719 7.417969 C 60.261719 7.417969 60.359375 7.417969 60.359375 7.417969 C 60.5625 7.320312 60.5625 7.117188 60.359375 7.019531 C 57.652344 4.210938 55.546875 1.003906 54.042969 -2.507812 C 66.578125 -7.921875 75.402344 -20.355469 75.402344 -34.894531 C 75.402344 -54.34375 59.660156 -70.085938 40.207031 -70.085938 C 20.753906 -70.085938 5.011719 -54.34375 5.011719 -34.894531 C 5.011719 -15.441406 20.753906 0.300781 40.207031 0.300781 Z M 66.777344 -34.894531 C 66.777344 -21.957031 61.265625 -10.628906 53.242188 -4.710938 C 52.238281 -7.621094 51.738281 -10.730469 51.738281 -13.9375 C 51.738281 -24.464844 57.351562 -34.292969 66.476562 -39.503906 C 66.679688 -38 66.777344 -36.496094 66.777344 -34.894531 Z M 51.238281 -13.9375 C 51.238281 -10.628906 51.738281 -7.417969 52.742188 -4.3125 C 49.03125 -1.703125 44.71875 -0.199219 40.207031 -0.199219 C 25.566406 -0.199219 13.636719 -15.742188 13.636719 -34.894531 C 13.636719 -54.042969 25.566406 -69.585938 40.207031 -69.585938 C 53.441406 -69.585938 64.574219 -56.75 66.476562 -40.105469 C 57.050781 -34.792969 51.238281 -24.765625 51.238281 -13.9375 Z M 51.238281 -13.9375 "/></g></g></g><g fill="#fff" fill-opacity="1"><g transform="translate(149.152003, 222.167084)"><g><path d="M 40.207031 0.300781 C 46.425781 0.300781 52.441406 -1.304688 57.652344 -4.3125 C 58.355469 -4.613281 59.058594 -4.8125 59.757812 -4.8125 C 62.46875 -4.8125 64.671875 -2.605469 64.671875 0 C 64.671875 0.199219 64.773438 0.300781 64.875 0.300781 C 65.074219 0.300781 65.175781 0.199219 65.175781 0 L 65.175781 -14.4375 C 65.175781 -14.539062 65.074219 -14.640625 64.875 -14.640625 C 64.773438 -14.640625 64.671875 -14.539062 64.671875 -14.4375 L 64.671875 -10.328125 C 62.46875 -8.121094 60.058594 -6.316406 57.453125 -4.8125 C 57.453125 -4.8125 57.453125 -4.8125 57.351562 -4.8125 C 57.253906 -4.710938 57.050781 -4.613281 56.851562 -4.511719 C 51.839844 -1.703125 46.125 -0.199219 40.207031 -0.199219 C 25.566406 -0.199219 13.636719 -15.742188 13.636719 -34.894531 C 13.636719 -54.042969 25.566406 -69.585938 40.207031 -69.585938 C 46.125 -69.585938 51.839844 -68.082031 56.851562 -65.375 C 56.851562 -65.375 56.851562 -65.273438 56.851562 -65.273438 C 57.050781 -65.175781 57.253906 -65.074219 57.351562 -65.074219 C 57.453125 -64.972656 57.453125 -64.972656 57.453125 -64.972656 C 60.058594 -63.46875 62.46875 -61.664062 64.671875 -59.558594 L 64.671875 -55.449219 C 64.671875 -55.246094 64.773438 -55.148438 64.875 -55.148438 C 65.074219 -55.148438 65.175781 -55.246094 65.175781 -55.449219 C 65.175781 -55.449219 65.175781 -69.886719 65.175781 -69.886719 C 65.175781 -69.988281 65.074219 -70.1875 64.875 -70.1875 C 64.773438 -70.1875 64.671875 -69.988281 64.671875 -69.886719 C 64.671875 -67.179688 62.46875 -64.972656 59.757812 -64.972656 C 59.058594 -64.972656 58.355469 -65.175781 57.652344 -65.476562 C 52.441406 -68.484375 46.425781 -70.085938 40.207031 -70.085938 C 30.78125 -70.085938 21.957031 -66.476562 15.242188 -59.859375 C 1.503906 -46.125 1.503906 -23.761719 15.242188 -10.027344 C 21.957031 -3.308594 30.78125 0.300781 40.207031 0.300781 Z M 40.207031 0.300781 "/></g></g></g><g fill="#fff" fill-opacity="1"><g transform="translate(219.335167, 222.167084)"><g><path d="M 5.214844 -0.199219 C 5.113281 -0.199219 5.011719 -0.101562 5.011719 0 C 5.011719 0.199219 5.113281 0.300781 5.214844 0.300781 L 46.726562 0.300781 C 66.175781 0.300781 82.019531 -15.441406 82.019531 -34.894531 C 82.019531 -54.34375 66.175781 -70.085938 46.726562 -70.085938 L 5.214844 -70.085938 C 5.113281 -70.085938 5.011719 -69.988281 5.011719 -69.886719 C 5.011719 -69.6875 5.113281 -69.585938 5.214844 -69.585938 C 8.722656 -69.585938 11.632812 -66.679688 11.632812 -63.167969 L 11.632812 -6.617188 C 11.632812 -3.109375 8.722656 -0.199219 5.214844 -0.199219 Z M 46.726562 -69.585938 C 61.363281 -69.585938 73.296875 -54.042969 73.296875 -34.894531 C 73.296875 -15.742188 61.363281 -0.199219 46.726562 -0.199219 L 20.253906 -0.199219 L 20.253906 -63.167969 C 20.253906 -66.078125 18.550781 -68.582031 16.042969 -69.585938 Z M 46.726562 -69.585938 "/></g></g></g></svg>
