<svg width="468" height="97" viewBox="0 0 468 97" fill="none" xmlns="http://www.w3.org/2000/svg">
<path d="M323.223 77.6687C321.743 77.6687 320.602 77.268 319.8 76.4666C319.06 75.6652 318.689 74.494 318.689 72.9529V71.196C318.689 69.7165 319.06 68.5761 319.8 67.7747C320.602 66.9734 321.743 66.5727 323.223 66.5727H324.149C325.691 66.5727 326.832 66.9734 327.572 67.7747C328.374 68.5761 328.775 69.7165 328.775 71.196V72.9529C328.775 76.0967 327.233 77.6687 324.149 77.6687H323.223Z" fill="white"/>
<path d="M396.108 28.4764C406.903 28.4764 412.301 35.1956 412.301 48.6341V73.3227C412.301 74.6173 411.9 75.6961 411.098 76.5591C410.296 77.3605 409.247 77.7612 407.952 77.7612C406.657 77.7612 405.577 77.3296 404.713 76.4666C403.911 75.6036 403.511 74.5556 403.511 73.3227V48.7266C403.511 40.6512 400.118 36.6134 393.332 36.6134C390.927 36.6134 388.737 37.1682 386.763 38.2778C384.851 39.3258 383.339 40.7744 382.229 42.6238C381.18 44.4731 380.656 46.5074 380.656 48.7266V73.3227C380.656 74.5556 380.224 75.6036 379.361 76.4666C378.559 77.3296 377.51 77.7612 376.215 77.7612C374.919 77.7612 373.871 77.3605 373.069 76.5591C372.267 75.6961 371.866 74.6173 371.866 73.3227V48.6341C371.866 44.9971 371.095 42.0998 369.553 39.9423C368.01 37.723 365.451 36.6134 361.873 36.6134C358.233 36.6134 355.211 37.7847 352.805 40.1272C350.461 42.408 349.289 45.2437 349.289 48.6341V73.3227C349.289 74.5556 348.857 75.6036 347.993 76.4666C347.192 77.3296 346.143 77.7612 344.848 77.7612C343.552 77.7612 342.503 77.3605 341.702 76.5591C340.9 75.6961 340.499 74.6173 340.499 73.3227V33.747C340.499 32.5141 340.9 31.4661 341.702 30.6031C342.565 29.7401 343.614 29.3086 344.848 29.3086C346.143 29.3086 347.192 29.7401 347.993 30.6031C348.857 31.4661 349.289 32.5141 349.289 33.747V36.9833C350.893 34.5792 353.021 32.5757 355.673 30.973C358.387 29.3086 361.318 28.4764 364.464 28.4764C372.113 28.4764 377.078 31.8668 379.361 38.6477C380.718 36.0586 382.969 33.7162 386.115 31.6202C389.261 29.5243 392.592 28.4764 396.108 28.4764Z" fill="white"/>
<path d="M468 51.6855C467.938 52.7951 467.476 53.7506 466.612 54.552C465.748 55.2917 464.731 55.6616 463.559 55.6616H430.989C431.42 60.1616 433.117 63.7678 436.078 66.4802C439.1 69.1926 442.771 70.5487 447.089 70.5487C450.049 70.5487 452.455 70.1172 454.306 69.2542C456.156 68.3912 457.791 67.2816 459.21 65.9254C460.135 65.3706 461.029 65.0932 461.893 65.0932C462.942 65.0932 463.805 65.4631 464.484 66.2028C465.224 66.9425 465.594 67.8056 465.594 68.7919C465.594 70.0864 464.977 71.2577 463.744 72.3056C461.955 74.0933 459.58 75.6036 456.619 76.8365C453.658 78.0694 450.635 78.6858 447.551 78.6858C442.555 78.6858 438.144 77.6379 434.32 75.5419C430.557 73.446 427.627 70.5179 425.529 66.7576C423.494 62.9973 422.476 58.7438 422.476 53.9972C422.476 48.8191 423.525 44.2882 425.622 40.4046C427.781 36.4593 430.588 33.4388 434.042 31.3428C437.558 29.2469 441.321 28.199 445.331 28.199C449.278 28.199 452.98 29.2161 456.434 31.2504C459.888 33.2846 462.664 36.0895 464.761 39.6648C466.859 43.2402 467.938 47.2471 468 51.6855ZM445.331 36.336C441.876 36.336 438.884 37.3224 436.355 39.295C433.826 41.206 432.161 44.1957 431.359 48.2643H458.655V47.5245C458.346 44.2574 456.866 41.5758 454.213 39.4799C451.622 37.384 448.662 36.336 445.331 36.336Z" fill="white"/>
<path d="M130.81 37.9081V65.4631C130.81 68.5454 132.198 70.0865 134.974 70.0865C135.406 70.0865 135.992 69.994 136.732 69.8091C137.473 69.5625 138.059 69.4392 138.49 69.4392C139.292 69.4392 139.971 69.7783 140.526 70.4564C141.081 71.1344 141.359 71.9975 141.359 73.0454C141.359 74.34 140.618 75.4496 139.138 76.3742C137.658 77.2989 135.992 77.7612 134.141 77.7612C132.106 77.7612 130.224 77.5455 128.497 77.114C126.832 76.6824 125.32 75.6037 123.963 73.8776C122.668 72.0899 122.02 69.4084 122.02 65.833C122.02 38.6937 122.02 37.1081 122.02 22.0962C122.02 20.8633 122.421 19.8154 123.223 18.9524C124.087 18.0893 125.166 17.6578 126.462 17.6578C127.695 17.6578 128.713 18.0893 129.515 18.9524C130.379 19.8154 130.81 20.8633 130.81 22.0962V29.8635H138.49C139.662 29.8635 140.618 30.2641 141.359 31.0655C142.161 31.8053 142.562 32.7607 142.562 33.932C142.562 35.1032 142.161 36.0587 141.359 36.7985C140.618 37.5382 139.662 37.9081 138.49 37.9081H130.81Z" fill="white"/>
<path d="M192.146 28.6614C193.441 28.6614 194.49 29.0929 195.292 29.9559C196.156 30.7573 196.587 31.8361 196.587 33.1923V73.3228C196.587 74.5557 196.156 75.6037 195.292 76.4667C194.49 77.3297 193.441 77.7612 192.146 77.7612C190.851 77.7612 189.802 77.3605 189 76.5592C188.198 75.6961 187.797 74.6174 187.797 73.3228V70.9187C186.193 73.0762 184.003 74.9256 181.228 76.4667C178.452 77.9462 175.46 78.6859 172.252 78.6859C168.058 78.6859 164.233 77.6071 160.779 75.4496C157.386 73.292 154.703 70.3022 152.729 66.4803C150.817 62.5967 149.86 58.2507 149.86 53.4425C149.86 48.6342 150.817 44.3191 152.729 40.4971C154.703 36.6135 157.386 33.5929 160.779 31.4354C164.172 29.2778 167.904 28.199 171.975 28.199C175.244 28.199 178.267 28.8771 181.043 30.2333C183.88 31.5895 186.132 33.3155 187.797 35.4115V33.1923C187.797 31.8977 188.198 30.8189 189 29.9559C189.802 29.0929 190.851 28.6614 192.146 28.6614ZM173.27 70.5488C176.169 70.5488 178.729 69.8091 180.95 68.3296C183.232 66.8502 184.99 64.8159 186.224 62.2268C187.52 59.6377 188.167 56.7096 188.167 53.4425C188.167 50.237 187.52 47.3397 186.224 44.7506C184.99 42.1615 183.232 40.1273 180.95 38.6478C178.729 37.1067 176.169 36.3361 173.27 36.3361C170.371 36.3361 167.78 37.0759 165.498 38.5553C163.277 40.0348 161.519 42.0691 160.224 44.6581C158.99 47.2472 158.373 50.1753 158.373 53.4425C158.373 56.7096 158.99 59.6377 160.224 62.2268C161.519 64.8159 163.277 66.8502 165.498 68.3296C167.78 69.8091 170.371 70.5488 173.27 70.5488Z" fill="white"/>
<path d="M233.993 28.4764C238.187 28.4764 241.981 29.5552 245.374 31.7128C248.766 33.8087 251.419 36.7676 253.331 40.5896C255.305 44.4116 256.292 48.7267 256.292 53.5349C256.292 58.3432 255.305 62.6583 253.331 66.4803C251.419 70.2406 248.766 73.1995 245.374 75.3571C241.981 77.5146 238.249 78.5934 234.178 78.5934C230.97 78.5934 227.978 77.8845 225.202 76.4667C222.427 75.0489 220.175 73.3228 218.448 71.2886V91.8162C218.448 93.0491 218.016 94.097 217.153 94.96C216.351 95.8231 215.302 96.2546 214.007 96.2546C212.773 96.2546 211.724 95.8231 210.861 94.96C210.059 94.1587 209.658 93.1107 209.658 91.8162V33.6546C209.658 32.3601 210.059 31.2813 210.861 30.4182C211.662 29.5552 212.711 29.1237 214.007 29.1237C215.302 29.1237 216.351 29.5552 217.153 30.4182C218.016 31.2813 218.448 32.3601 218.448 33.6546V36.3361C219.928 34.1786 222.087 32.3292 224.925 30.7881C227.762 29.247 230.785 28.4764 233.993 28.4764ZM232.975 70.4564C235.812 70.4564 238.372 69.7166 240.655 68.2372C242.937 66.7577 244.695 64.7542 245.929 62.2268C247.224 59.6377 247.872 56.7405 247.872 53.5349C247.872 50.3294 247.224 47.463 245.929 44.9355C244.695 42.3465 242.937 40.3122 240.655 38.8327C238.372 37.3533 235.812 36.6135 232.975 36.6135C230.076 36.6135 227.485 37.3533 225.202 38.8327C222.92 40.2505 221.131 42.254 219.836 44.8431C218.602 47.4321 217.985 50.3294 217.985 53.5349C217.985 56.7405 218.602 59.6377 219.836 62.2268C221.131 64.8159 222.92 66.8502 225.202 68.3296C227.485 69.7474 230.076 70.4564 232.975 70.4564Z" fill="white"/>
<path d="M302.58 28.8463C303.876 28.8463 304.924 29.2778 305.726 30.1408C306.59 31.0039 307.021 32.0518 307.021 33.2847V73.2304C307.021 80.9359 304.893 86.6997 300.637 90.5216C296.381 94.3436 290.767 96.2546 283.797 96.2546C281.514 96.2546 279.263 96.0388 277.042 95.6073C274.822 95.1758 273.002 94.5902 271.583 93.8504C269.301 92.8025 268.16 91.3847 268.16 89.597C268.16 89.2887 268.221 88.8881 268.345 88.3949C268.715 87.3469 269.239 86.5456 269.918 85.9908C270.596 85.436 271.367 85.1586 272.231 85.1586C272.724 85.1586 273.187 85.251 273.619 85.436C275.531 86.299 277.227 86.9771 278.708 87.4702C280.188 87.9634 281.915 88.21 283.889 88.21C293.451 88.21 298.231 83.3092 298.231 73.5078V71.6584C296.566 73.8776 294.407 75.6037 291.754 76.8366C289.163 78.0694 286.172 78.6859 282.779 78.6859C277.659 78.6859 273.65 77.0523 270.75 73.7852C267.913 70.518 266.494 66.2337 266.494 60.9323V33.2847C266.494 31.9902 266.895 30.9422 267.697 30.1408C268.499 29.2778 269.547 28.8463 270.843 28.8463C272.138 28.8463 273.187 29.2778 273.989 30.1408C274.852 31.0039 275.284 32.0518 275.284 33.2847V58.6206C275.284 62.6891 276.179 65.7097 277.968 67.6824C279.756 69.5933 282.471 70.5488 286.11 70.5488C289.626 70.5488 292.525 69.4392 294.808 67.22C297.09 65.0008 298.231 62.1343 298.231 58.6206V33.2847C298.231 31.9902 298.632 30.9422 299.434 30.1408C300.236 29.2778 301.285 28.8463 302.58 28.8463Z" fill="white"/>
<path d="M27.6789 64.0168C25.4945 61.8324 25.4945 58.2907 27.6789 56.1063L51.1062 32.679C53.2907 30.4945 56.8323 30.4945 59.0168 32.679C61.2012 34.8634 61.2012 38.4051 59.0168 40.5895L35.5894 64.0168C33.405 66.2012 29.8633 66.2012 27.6789 64.0168Z" fill="url(#paint0_linear)"/>
<path fill-rule="evenodd" clip-rule="evenodd" d="M24.9407 37.547C22.7563 35.3625 19.2146 35.3625 17.0302 37.547L7.75053 46.8266C-2.58351 57.1607 -2.58351 73.9154 7.75053 84.2495C18.0846 94.5835 34.8393 94.5835 45.1734 84.2495L54.453 74.9698C56.6375 72.7854 56.6375 69.2437 54.453 67.0593C52.2686 64.8749 48.7269 64.8749 46.5425 67.0593L37.2629 76.339C31.2977 82.3041 21.6262 82.3041 15.661 76.339C9.69587 70.3738 9.69587 60.7023 15.661 54.7371L24.9407 45.4575C27.1251 43.2731 27.1251 39.7314 24.9407 37.547ZM62.3635 59.1488C60.1791 56.9644 60.1791 53.4227 62.3635 51.2383L71.339 42.2629C77.3041 36.2977 77.3041 26.6262 71.339 20.661C65.3738 14.6959 55.7023 14.6959 49.7371 20.661L40.7617 29.6364C38.5773 31.8209 35.0357 31.8209 32.8512 29.6364C30.6668 27.452 30.6668 23.9104 32.8512 21.7259L41.8266 12.7505C52.1607 2.41649 68.9154 2.41649 79.2495 12.7505C89.5835 23.0846 89.5835 39.8393 79.2495 50.1734L70.2741 59.1488C68.0896 61.3332 64.548 61.3332 62.3635 59.1488Z" fill="url(#paint1_linear)"/>
<defs>
<linearGradient id="paint0_linear" x1="-3.31348" y1="86.6103" x2="25.0405" y2="-10.0162" gradientUnits="userSpaceOnUse">
<stop stop-color="#8F5CCF"/>
<stop offset="1" stop-color="#F52388"/>
</linearGradient>
<linearGradient id="paint1_linear" x1="-3.31348" y1="86.6103" x2="25.0405" y2="-10.0162" gradientUnits="userSpaceOnUse">
<stop stop-color="#8F5CCF"/>
<stop offset="1" stop-color="#F52388"/>
</linearGradient>
</defs>
</svg>
