<svg width="340" height="340" fill="none" xmlns="http://www.w3.org/2000/svg"><path fill="#F9B066" d="M0 0h340v340H0z"/><rect x="49.853" y="50.85" width="240" height="240" rx="35" fill="#fff"/><path d="M91 221l34-26.4 31.6 21.6 26.8-41.1 14.8 12.6L241 137" stroke="#EB9E9E" stroke-width="6" stroke-linecap="round"/><path d="M97 239l34.227-22.314 31.81 18.257 26.979-34.739 14.899 10.65L248 168" stroke="#9EBCEB" stroke-width="6" stroke-linecap="round"/><path d="M115.573 101.532l2.256-7.485h2.283L116.646 104h-2.139l-3.452-9.953h2.276l2.242 7.485zm7.663 2.468h-2.05v-9.953h2.05V104zm7.896-4.314h-3.938v2.667h4.621V104h-6.671v-9.953h6.658v1.661h-4.608v2.372h3.938v1.606zm9.639 1.443l1.339-7.082h2.044L141.946 104h-2.064l-1.62-6.658-1.62 6.658h-2.065l-2.208-9.953h2.044l1.347 7.068 1.64-7.068h1.737l1.634 7.082zm9.659.26c0-.388-.137-.684-.41-.889-.274-.21-.766-.428-1.477-.656-.711-.233-1.274-.46-1.689-.684-1.13-.61-1.695-1.433-1.695-2.468 0-.537.151-1.016.451-1.435.306-.424.741-.754 1.306-.991.57-.237 1.208-.356 1.914-.356.711 0 1.344.13 1.9.39.556.255.987.617 1.292 1.087.31.47.465 1.002.465 1.6h-2.05c0-.456-.144-.81-.431-1.06-.287-.256-.691-.383-1.21-.383-.501 0-.891.107-1.169.321a.994.994 0 00-.417.834c0 .324.162.595.485.814.328.218.809.423 1.443.615 1.166.35 2.016.786 2.55 1.306.533.52.799 1.166.799 1.941 0 .861-.326 1.538-.977 2.03-.652.488-1.529.732-2.632.732-.766 0-1.463-.139-2.092-.417-.629-.283-1.11-.668-1.442-1.156-.328-.487-.492-1.052-.492-1.695h2.057c0 1.098.656 1.648 1.969 1.648.488 0 .868-.098 1.142-.294a.978.978 0 00.41-.834z" fill="#000"/><rect x="91" y="93" width="12" height="12" rx="6" fill="#EB9E9E"/><path d="M208.646 100.685c-.077 1.071-.473 1.914-1.189 2.529-.711.615-1.65.923-2.816.923-1.276 0-2.281-.429-3.015-1.285-.729-.862-1.094-2.042-1.094-3.541v-.609c0-.957.169-1.8.506-2.53.337-.728.818-1.287 1.442-1.674.629-.392 1.359-.588 2.188-.588 1.148 0 2.074.308 2.775.923.702.615 1.108 1.479 1.217 2.59h-2.051c-.05-.642-.23-1.107-.54-1.394-.305-.291-.772-.437-1.401-.437-.684 0-1.196.246-1.538.738-.337.488-.511 1.246-.52 2.276v.752c0 1.076.162 1.862.486 2.359.328.497.843.745 1.545.745.633 0 1.105-.144 1.415-.431.314-.291.494-.74.54-1.346h2.05zm3.398 1.668h4.354V104h-6.405v-9.953h2.051v8.306zm7.718 1.647h-2.051v-9.953h2.051V104zm9.72-3.315c-.077 1.071-.474 1.914-1.189 2.529-.711.615-1.65.923-2.816.923-1.276 0-2.281-.429-3.015-1.285-.729-.862-1.094-2.042-1.094-3.541v-.609c0-.957.169-1.8.506-2.53.337-.728.818-1.287 1.442-1.674.629-.392 1.358-.588 2.188-.588 1.148 0 2.073.308 2.775.923s1.108 1.479 1.217 2.59h-2.051c-.05-.642-.23-1.107-.54-1.394-.305-.291-.772-.437-1.401-.437-.684 0-1.196.246-1.538.738-.337.488-.511 1.246-.52 2.276v.752c0 1.076.162 1.862.486 2.359.328.497.843.745 1.545.745.633 0 1.105-.144 1.415-.431.314-.291.494-.74.54-1.346h2.05zm4.464-.677l-1.066 1.148V104h-2.051v-9.953h2.051v4.512l.902-1.238 2.536-3.274h2.523l-3.534 4.423 3.636 5.53h-2.44l-2.557-3.992zm10.931 1.381c0-.388-.137-.684-.41-.889-.274-.21-.766-.428-1.477-.656-.711-.233-1.274-.46-1.688-.684-1.13-.61-1.696-1.433-1.696-2.468a2.4 2.4 0 01.452-1.435c.305-.424.74-.754 1.305-.991.57-.237 1.208-.356 1.914-.356.711 0 1.345.13 1.901.39.556.255.986.617 1.292 1.087.31.47.465 1.002.465 1.6h-2.051c0-.456-.144-.81-.431-1.06-.287-.256-.69-.383-1.21-.383-.501 0-.891.107-1.169.321a.994.994 0 00-.417.834c0 .324.162.595.486.814.328.218.808.423 1.442.615 1.167.35 2.017.786 2.55 1.306.533.52.8 1.166.8 1.941 0 .861-.326 1.538-.978 2.03-.652.488-1.529.732-2.632.732-.765 0-1.463-.139-2.092-.417-.629-.283-1.109-.668-1.442-1.156-.328-.487-.492-1.052-.492-1.695h2.057c0 1.098.657 1.648 1.969 1.648.488 0 .868-.098 1.142-.294a.978.978 0 00.41-.834z" fill="#000"/><rect x="180" y="93" width="12" height="12" rx="6" fill="#9EBCEB"/></svg>