<svg width="340" height="340" fill="none" xmlns="http://www.w3.org/2000/svg"><path fill="#FFCA95" d="M0 0h340v340H0z"/><path d="M55 91c0-19.33 15.67-35 35-35h160c19.33 0 35 15.67 35 35v249H55V91z" fill="#fff"/><path d="M199.58 115.66c0 16.52-13.316 29.912-29.741 29.912-16.426 0-29.742-13.392-29.742-29.912s13.316-29.912 29.742-29.912c16.425 0 29.741 13.392 29.741 29.912zM81.606 175.501a6 6 0 016-6h164.465a6 6 0 016 6v17.912a6 6 0 01-6 6H87.606a6 6 0 01-6-6v-17.912zm0 41.877a6 6 0 016-6h164.465a6 6 0 016 6v17.912a6 6 0 01-6 6H87.606a6 6 0 01-6-6v-17.912zm0 41.877a6 6 0 016-6h164.465a6 6 0 016 6v17.912a6 6 0 01-6 6H87.606a6 6 0 01-6-6v-17.912zm61.466 50.833c0 8.26-6.658 14.956-14.871 14.956-8.213 0-14.871-6.696-14.871-14.956s6.658-14.956 14.871-14.956c8.213 0 14.871 6.696 14.871 14.956zm41.637 0c0 8.26-6.657 14.956-14.87 14.956s-14.871-6.696-14.871-14.956 6.658-14.956 14.871-14.956c8.213 0 14.87 6.696 14.87 14.956zm41.639 0c0 8.26-6.658 14.956-14.871 14.956-8.213 0-14.871-6.696-14.871-14.956s6.658-14.956 14.871-14.956c8.213 0 14.871 6.696 14.871 14.956z" fill="#D237A1"/></svg>