<svg width="34" height="34" fill="none" xmlns="http://www.w3.org/2000/svg"><rect width="34" height="34" rx="17" fill="url(#paint0_radial_143_67)"/><rect width="34" height="34" rx="17" fill="url(#paint1_radial_143_67)"/><path d="M17.21 8c-2.502 0-2.816.01-3.798.056-.98.045-1.65.2-2.235.427-.605.236-1.12.55-1.63 1.062a4.52 4.52 0 00-1.064 1.631c-.228.586-.383 1.255-.428 2.235-.043.982-.055 1.296-.055 3.797 0 2.501.011 2.814.056 3.796.045.98.2 1.65.427 2.235a4.51 4.51 0 001.062 1.631 4.51 4.51 0 001.631 1.063c.586.228 1.255.383 2.236.428.982.045 1.295.056 3.796.056s2.814-.011 3.796-.056c.98-.045 1.65-.2 2.236-.428a4.505 4.505 0 001.63-1.063 4.519 4.519 0 001.063-1.63c.227-.586.382-1.256.428-2.235.044-.983.056-1.296.056-3.797 0-2.5-.012-2.814-.056-3.797-.046-.98-.201-1.649-.428-2.234a4.52 4.52 0 00-1.063-1.632 4.5 4.5 0 00-1.63-1.062c-.587-.227-1.257-.382-2.237-.427C20.02 8.01 19.708 8 17.206 8h.003zm-.827 1.66h.826c2.459 0 2.75.008 3.721.052.898.041 1.385.191 1.71.318.43.166.736.366 1.058.688.322.322.522.63.69 1.06.125.323.275.81.316 1.708.044.971.054 1.263.054 3.72 0 2.458-.01 2.75-.054 3.72-.04.898-.19 1.385-.317 1.71a2.854 2.854 0 01-.689 1.057 2.848 2.848 0 01-1.058.689c-.324.126-.812.276-1.71.317-.97.044-1.262.054-3.72.054-2.46 0-2.751-.01-3.722-.054-.898-.041-1.385-.191-1.71-.317a2.852 2.852 0 01-1.059-.69 2.854 2.854 0 01-.689-1.058c-.126-.324-.276-.811-.317-1.709-.044-.97-.053-1.262-.053-3.721 0-2.46.009-2.75.053-3.72.041-.898.191-1.385.317-1.71a2.84 2.84 0 01.69-1.058 2.86 2.86 0 011.058-.69c.325-.126.812-.276 1.71-.317.85-.038 1.179-.05 2.895-.052v.002zm5.742 1.528a1.105 1.105 0 100 2.21 1.105 1.105 0 000-2.21zm-4.916 1.291a4.729 4.729 0 100 9.459 4.729 4.729 0 000-9.458zm0 1.66a3.07 3.07 0 110 6.139 3.07 3.07 0 010-6.14z" fill="#fff"/><defs><radialGradient id="paint0_radial_143_67" cx="0" cy="0" r="1" gradientUnits="userSpaceOnUse" gradientTransform="matrix(0 -33.6965 31.3404 0 9.031 36.619)"><stop stop-color="#FD5"/><stop offset=".1" stop-color="#FD5"/><stop offset=".5" stop-color="#FF543E"/><stop offset="1" stop-color="#C837AB"/></radialGradient><radialGradient id="paint1_radial_143_67" cx="0" cy="0" r="1" gradientUnits="userSpaceOnUse" gradientTransform="rotate(78.681 -4.342 -2.25) scale(15.0625 62.0882)"><stop stop-color="#3771C8"/><stop offset=".128" stop-color="#3771C8"/><stop offset="1" stop-color="#60F" stop-opacity="0"/></radialGradient></defs></svg>