<svg width="468" height="97" fill="none" xmlns="http://www.w3.org/2000/svg"><path d="M323.223 77.669c-1.48 0-2.621-.4-3.423-1.202-.74-.802-1.111-1.973-1.111-3.514v-1.757c0-1.48.371-2.62 1.111-3.421.802-.802 1.943-1.202 3.423-1.202h.926c1.542 0 2.683.4 3.423 1.202.802.801 1.203 1.942 1.203 3.421v1.757c0 3.144-1.542 4.716-4.626 4.716h-.926zm72.885-49.193c10.795 0 16.193 6.72 16.193 20.158v24.689c0 1.294-.401 2.373-1.203 3.236-.802.802-1.851 1.202-3.146 1.202s-2.375-.431-3.239-1.294c-.802-.863-1.202-1.911-1.202-3.144V48.727c0-8.076-3.393-12.113-10.179-12.113-2.405 0-4.595.554-6.569 1.664a11.813 11.813 0 00-4.534 4.346c-1.049 1.85-1.573 3.883-1.573 6.103v24.596c0 1.233-.432 2.28-1.295 3.144-.802.863-1.851 1.294-3.146 1.294-1.296 0-2.344-.4-3.146-1.202-.802-.863-1.203-1.942-1.203-3.236V48.634c0-3.637-.771-6.534-2.313-8.692-1.543-2.219-4.102-3.328-7.68-3.328-3.64 0-6.662 1.17-9.068 3.513-2.344 2.281-3.516 5.117-3.516 8.507v24.689c0 1.233-.432 2.28-1.296 3.144-.801.863-1.85 1.294-3.145 1.294-1.296 0-2.345-.4-3.146-1.202-.802-.863-1.203-1.942-1.203-3.236V33.747c0-1.233.401-2.28 1.203-3.144.863-.863 1.912-1.294 3.146-1.294 1.295 0 2.344.431 3.145 1.294.864.863 1.296 1.911 1.296 3.144v3.236c1.604-2.404 3.732-4.407 6.384-6.01 2.714-1.664 5.645-2.497 8.791-2.497 7.649 0 12.614 3.39 14.897 10.172 1.357-2.59 3.608-4.932 6.754-7.028 3.146-2.096 6.477-3.144 9.993-3.144zM468 51.686c-.062 1.11-.524 2.065-1.388 2.866-.864.74-1.881 1.11-3.053 1.11h-32.57c.431 4.5 2.128 8.106 5.089 10.818 3.022 2.713 6.693 4.069 11.011 4.069 2.96 0 5.366-.432 7.217-1.295a18.136 18.136 0 004.904-3.329c.925-.554 1.819-.832 2.683-.832 1.049 0 1.912.37 2.591 1.11.74.74 1.11 1.603 1.11 2.589 0 1.294-.617 2.466-1.85 3.514-1.789 1.787-4.164 3.298-7.125 4.53-2.961 1.233-5.984 1.85-9.068 1.85-4.996 0-9.407-1.048-13.231-3.144-3.763-2.096-6.693-5.024-8.791-8.784-2.035-3.76-3.053-8.014-3.053-12.76 0-5.179 1.049-9.71 3.146-13.593 2.159-3.946 4.966-6.966 8.42-9.062 3.516-2.096 7.279-3.144 11.289-3.144 3.947 0 7.649 1.017 11.103 3.051 3.454 2.035 6.23 4.84 8.327 8.415 2.098 3.575 3.177 7.582 3.239 12.02zm-22.669-15.35c-3.455 0-6.447.986-8.976 2.959-2.529 1.911-4.194 4.9-4.996 8.97h27.296v-.74c-.309-3.268-1.789-5.95-4.442-8.045-2.591-2.096-5.551-3.144-8.882-3.144zM130.81 37.908v27.555c0 3.082 1.388 4.624 4.164 4.624.432 0 1.018-.093 1.758-.278.741-.246 1.327-.37 1.758-.37.802 0 1.481.34 2.036 1.017.555.678.833 1.541.833 2.59 0 1.294-.741 2.404-2.221 3.328-1.48.925-3.146 1.387-4.997 1.387-2.035 0-3.917-.215-5.644-.647-1.665-.432-3.177-1.51-4.534-3.236-1.295-1.788-1.943-4.47-1.943-8.045V22.096c0-1.233.401-2.28 1.203-3.144.864-.863 1.943-1.294 3.239-1.294 1.233 0 2.251.431 3.053 1.294.864.863 1.295 1.911 1.295 3.144v7.767h7.68c1.172 0 2.128.401 2.869 1.203.802.74 1.203 1.695 1.203 2.866s-.401 2.127-1.203 2.866c-.741.74-1.697 1.11-2.869 1.11h-7.68zm61.336-9.247c1.295 0 2.344.432 3.146 1.295.864.801 1.295 1.88 1.295 3.236v40.13c0 1.234-.431 2.282-1.295 3.145-.802.863-1.851 1.294-3.146 1.294s-2.344-.4-3.146-1.202c-.802-.863-1.203-1.942-1.203-3.236v-2.404c-1.604 2.157-3.794 4.007-6.569 5.548-2.776 1.48-5.768 2.219-8.976 2.219-4.194 0-8.019-1.079-11.473-3.236-3.393-2.158-6.076-5.148-8.05-8.97-1.912-3.883-2.869-8.23-2.869-13.038s.957-9.123 2.869-12.945c1.974-3.883 4.657-6.904 8.05-9.062 3.393-2.157 7.125-3.236 11.196-3.236 3.269 0 6.292.678 9.068 2.034 2.837 1.357 5.089 3.082 6.754 5.178v-2.219c0-1.294.401-2.373 1.203-3.236s1.851-1.295 3.146-1.295zM173.27 70.55c2.899 0 5.459-.74 7.68-2.22 2.282-1.479 4.04-3.513 5.274-6.102 1.296-2.59 1.943-5.517 1.943-8.784 0-3.206-.647-6.103-1.943-8.692-1.234-2.59-2.992-4.624-5.274-6.103-2.221-1.541-4.781-2.312-7.68-2.312s-5.49.74-7.772 2.22c-2.221 1.479-3.979 3.513-5.274 6.102-1.234 2.59-1.851 5.517-1.851 8.785 0 3.267.617 6.195 1.851 8.784 1.295 2.589 3.053 4.623 5.274 6.103 2.282 1.48 4.873 2.219 7.772 2.219zm60.723-42.074c4.194 0 7.988 1.08 11.381 3.237 3.392 2.096 6.045 5.055 7.957 8.877 1.974 3.822 2.961 8.137 2.961 12.945s-.987 9.123-2.961 12.945c-1.912 3.76-4.565 6.72-7.957 8.877-3.393 2.158-7.125 3.236-11.196 3.236-3.208 0-6.2-.709-8.976-2.126-2.775-1.418-5.027-3.144-6.754-5.178v20.527c0 1.233-.432 2.281-1.295 3.144-.802.863-1.851 1.295-3.146 1.295-1.234 0-2.283-.432-3.146-1.295-.802-.801-1.203-1.85-1.203-3.144V33.655c0-1.295.401-2.374 1.203-3.237.801-.863 1.85-1.294 3.146-1.294 1.295 0 2.344.431 3.146 1.294.863.863 1.295 1.942 1.295 3.237v2.681c1.48-2.157 3.639-4.007 6.477-5.548 2.837-1.541 5.86-2.312 9.068-2.312zm-1.018 41.98c2.837 0 5.397-.74 7.68-2.219 2.282-1.48 4.04-3.483 5.274-6.01 1.295-2.59 1.943-5.486 1.943-8.692 0-3.206-.648-6.072-1.943-8.6-1.234-2.589-2.992-4.623-5.274-6.102-2.283-1.48-4.843-2.22-7.68-2.22-2.899 0-5.49.74-7.773 2.22-2.282 1.418-4.071 3.421-5.366 6.01-1.234 2.59-1.851 5.486-1.851 8.692 0 3.206.617 6.103 1.851 8.692 1.295 2.589 3.084 4.623 5.366 6.103 2.283 1.417 4.874 2.126 7.773 2.126zm69.605-41.61c1.296 0 2.344.432 3.146 1.295.864.863 1.295 1.91 1.295 3.144V73.23c0 7.706-2.128 13.47-6.384 17.292-4.256 3.822-9.87 5.733-16.84 5.733-2.283 0-4.534-.216-6.755-.648-2.22-.431-4.04-1.017-5.459-1.757-2.282-1.047-3.423-2.465-3.423-4.253 0-.308.061-.709.185-1.202.37-1.048.894-1.85 1.573-2.404a3.553 3.553 0 012.313-.832c.493 0 .956.092 1.388.277 1.912.863 3.608 1.541 5.089 2.034 1.48.493 3.207.74 5.181.74 9.562 0 14.342-4.9 14.342-14.702v-1.85c-1.665 2.22-3.824 3.946-6.477 5.179-2.591 1.232-5.582 1.849-8.975 1.849-5.12 0-9.129-1.634-12.029-4.9-2.837-3.268-4.256-7.552-4.256-12.854V33.285c0-1.295.401-2.343 1.203-3.144.802-.863 1.85-1.295 3.146-1.295 1.295 0 2.344.432 3.146 1.295.863.863 1.295 1.91 1.295 3.144V58.62c0 4.068.895 7.089 2.684 9.061 1.788 1.911 4.503 2.867 8.142 2.867 3.516 0 6.415-1.11 8.698-3.329 2.282-2.22 3.423-5.086 3.423-8.6V33.286c0-1.295.401-2.343 1.203-3.144.802-.863 1.851-1.295 3.146-1.295z" fill="#000"/><path d="M27.679 64.017a5.594 5.594 0 010-7.91l23.427-23.428a5.594 5.594 0 117.91 7.91L35.59 64.017a5.594 5.594 0 01-7.91 0z" fill="url(#paint0_linear)"/><path fill-rule="evenodd" clip-rule="evenodd" d="M24.94 37.547a5.593 5.593 0 00-7.91 0l-9.28 9.28c-10.334 10.334-10.334 27.088 0 37.422 10.335 10.335 27.09 10.335 37.423 0l9.28-9.28a5.593 5.593 0 10-7.91-7.91l-9.28 9.28c-5.965 5.965-15.637 5.965-21.602 0s-5.965-15.637 0-21.602l9.28-9.28a5.594 5.594 0 000-7.91zm37.424 21.602a5.594 5.594 0 010-7.91l8.975-8.976c5.965-5.965 5.965-15.637 0-21.602s-15.637-5.965-21.602 0l-8.975 8.975a5.593 5.593 0 11-7.91-7.91l8.975-8.975c10.334-10.335 27.088-10.335 37.422 0 10.335 10.334 10.335 27.088 0 37.422l-8.975 8.976a5.594 5.594 0 01-7.91 0z" fill="url(#paint1_linear)"/><defs><linearGradient id="paint0_linear" x1="-3.313" y1="86.61" x2="25.041" y2="-10.016" gradientUnits="userSpaceOnUse"><stop stop-color="#8F5CCF"/><stop offset="1" stop-color="#F52388"/></linearGradient><linearGradient id="paint1_linear" x1="-3.313" y1="86.61" x2="25.041" y2="-10.016" gradientUnits="userSpaceOnUse"><stop stop-color="#8F5CCF"/><stop offset="1" stop-color="#F52388"/></linearGradient></defs></svg>