<svg width="88" height="88" fill="none" xmlns="http://www.w3.org/2000/svg"><path d="M87.31 43.86c0 23.996-19.454 43.45-43.45 43.45C19.861 87.31.41 67.855.41 43.86.41 19.861 19.861.41 43.86.41c23.996 0 43.45 19.452 43.45 43.45z" fill="#fff"/><path d="M34.657 52.873a3.253 3.253 0 010-4.6l13.626-13.626a3.253 3.253 0 114.6 4.6L39.259 52.874a3.253 3.253 0 01-4.6 0z" fill="url(#paint0_linear_65_72)"/><path fill-rule="evenodd" clip-rule="evenodd" d="M33.065 37.478a3.253 3.253 0 00-4.6 0l-5.398 5.397c-6.01 6.01-6.01 15.755 0 21.765s15.755 6.01 21.765 0l5.397-5.397a3.253 3.253 0 10-4.6-4.6L40.23 60.04a8.884 8.884 0 11-12.564-12.564l5.398-5.397a3.253 3.253 0 000-4.601zM54.83 50.042a3.253 3.253 0 010-4.601l5.22-5.22a8.884 8.884 0 10-12.563-12.564l-5.22 5.22a3.253 3.253 0 11-4.601-4.6l5.22-5.22c6.01-6.011 15.755-6.011 21.765 0 6.01 6.01 6.01 15.754 0 21.765l-5.22 5.22a3.253 3.253 0 01-4.6 0z" fill="url(#paint1_linear_65_72)"/><defs><linearGradient id="paint0_linear_65_72" x1="16.632" y1="66.013" x2="33.123" y2="9.815" gradientUnits="userSpaceOnUse"><stop stop-color="#8F5CCF"/><stop offset="1" stop-color="#F52388"/></linearGradient><linearGradient id="paint1_linear_65_72" x1="16.632" y1="66.013" x2="33.123" y2="9.815" gradientUnits="userSpaceOnUse"><stop stop-color="#8F5CCF"/><stop offset="1" stop-color="#F52388"/></linearGradient></defs></svg>