<?xml version="1.0" standalone="no"?>
<!DOCTYPE svg PUBLIC "-//W3C//DTD SVG 20010904//EN"
 "http://www.w3.org/TR/2001/REC-SVG-20010904/DTD/svg10.dtd">
<svg version="1.0" xmlns="http://www.w3.org/2000/svg"
 width="700.000000pt" height="700.000000pt" viewBox="0 0 700.000000 700.000000"
 preserveAspectRatio="xMidYMid meet">
<metadata>
Created by potrace 1.14, written by Peter Selinger 2001-2017
</metadata>
<g transform="translate(0.000000,700.000000) scale(0.100000,-0.100000)"
fill="#000000" stroke="none">
<path d="M4665 6993 c-423 -46 -792 -194 -1125 -451 -119 -92 -929 -900 -968
-966 -109 -185 -81 -410 70 -557 144 -139 376 -165 546 -59 24 15 225 207 446
427 220 220 426 420 456 445 149 122 346 212 545 249 88 17 110 18 225 19 622
3 1150 -476 1215 -1100 22 -215 -18 -448 -111 -646 -80 -171 -133 -234 -577
-680 -230 -231 -427 -434 -438 -450 -51 -75 -77 -169 -74 -269 8 -273 263
-474 533 -419 136 28 142 33 592 484 228 228 433 435 455 460 160 181 302 420
390 655 37 99 88 283 99 361 4 22 8 50 11 63 20 106 27 412 12 550 -5 41 -10
77 -12 80 -2 4 -6 30 -10 60 -13 100 -65 284 -122 425 -142 357 -392 677 -710
913 -62 46 -115 83 -118 83 -2 0 -28 15 -57 33 -157 98 -455 218 -607 243 -14
3 -32 7 -40 9 -75 27 -493 52 -626 38z"/>
<path d="M4278 4887 c-37 -13 -89 -39 -115 -57 -26 -19 -484 -471 -1017 -1005
-709 -709 -978 -985 -998 -1021 -146 -269 6 -600 303 -661 104 -22 247 7 336
68 56 39 1963 1946 2002 2002 64 93 90 235 65 345 -30 129 -123 249 -235 304
-70 34 -94 39 -194 44 -65 4 -92 0 -147 -19z"/>
<path d="M1560 4501 c-117 -37 -133 -52 -570 -487 -234 -234 -456 -462 -493
-507 -267 -321 -430 -699 -482 -1115 -13 -106 -13 -439 0 -512 46 -256 50
-275 92 -400 106 -319 273 -590 508 -825 127 -128 155 -152 250 -221 279 -201
583 -330 906 -384 221 -37 522 -34 741 6 24 4 45 8 48 9 53 9 265 73 350 107
159 63 434 220 515 295 11 10 43 36 70 58 28 21 246 235 485 475 458 457 473
476 505 596 73 275 -149 558 -435 555 -93 -1 -187 -30 -251 -76 -18 -14 -227
-218 -464 -453 -452 -449 -503 -493 -673 -577 -407 -201 -897 -158 -1263 111
-262 193 -449 502 -485 799 -3 22 -7 51 -10 63 -6 30 -6 215 1 267 4 31 19
110 30 155 1 3 5 20 9 38 15 64 75 203 120 279 73 125 158 221 453 515 609
605 597 590 610 772 15 198 -100 374 -292 449 -70 27 -203 31 -275 8z"/>
</g>
</svg>
