<svg width="35" height="35" fill="none" xmlns="http://www.w3.org/2000/svg"><rect x=".082" y=".445" width="34" height="34" rx="17" fill="#FF5502"/><path d="M4.633 17.74c-.054 0-.082.027-.11.11l-.191 1.405.192 1.406c0 .055.055.11.11.11.054 0 .082-.027.11-.11l.218-1.406-.219-1.433c-.027-.055-.082-.082-.11-.082zm1.042-.8a.117.117 0 00-.11-.11c-.054 0-.109.055-.109.11l-.247 2.315.247 2.26c0 .055.055.11.11.11.054 0 .11-.055.11-.11l.274-2.26-.275-2.314zm3.949-2.122a.188.188 0 00-.192.193l-.192 4.244.192 2.729c0 .11.082.193.192.193s.192-.083.192-.193l.219-2.729-.22-4.244a.188.188 0 00-.191-.193zm-2.057 1.489c-.082 0-.137.055-.137.137l-.22 2.811.22 2.701c0 .083.082.138.137.138.083 0 .137-.055.137-.138l.247-2.7-.247-2.812c0-.082-.054-.137-.137-.137zm4.14 5.87c.138 0 .22-.11.247-.248l.192-2.701-.22-5.622a.246.246 0 00-.246-.248c-.137 0-.22.11-.247.248l-.164 5.65.164 2.7c.028.11.137.22.275.22zm4.25.027a.334.334 0 00.33-.33l.137-2.619-.165-6.503a.334.334 0 00-.329-.331.334.334 0 00-.329.33l-.11 6.504.11 2.619c.028.165.165.33.357.33zm-2.138-.027c.164 0 .274-.11.274-.276l.165-2.646-.165-5.677a.275.275 0 00-.274-.275c-.165 0-.274.11-.274.275l-.165 5.677.137 2.646c0 .165.137.276.302.276zm-5.237-.028c.082 0 .164-.083.164-.165l.247-2.729-.247-2.59c0-.083-.082-.165-.164-.165s-.165.082-.165.165l-.22 2.59.22 2.729c0 .11.083.165.165.165zm-2.03-.138c.056 0 .11-.055.138-.137l.274-2.619-.274-2.728c0-.083-.055-.138-.137-.138-.055 0-.11.055-.137.138l-.247 2.728.247 2.619c.027.082.082.137.137.137zm8.309-8.543a.305.305 0 00-.302.303l-.137 5.484.137 2.646c0 .165.137.303.302.303a.305.305 0 00.301-.303l.165-2.646-.165-5.484a.305.305 0 00-.301-.303zm-4.195 8.709c.11 0 .219-.083.219-.22l.22-2.73-.22-5.208c0-.11-.11-.22-.22-.22a.216.216 0 00-.219.22l-.192 5.209.192 2.728c0 .138.083.22.22.22zm2.33-.248l.192-2.674-.192-5.842a.246.246 0 10-.493 0l-.165 5.815.165 2.673c0 .138.11.248.246.248.138.028.247-.083.247-.22zm13.683-6.036c-.44 0-.85.083-1.207.248-.247-2.838-2.605-5.07-5.511-5.07-.713 0-1.399.137-2.002.385-.247.083-.301.193-.301.359v10.003c0 .193.164.359.329.386h8.692a3.132 3.132 0 003.125-3.142c0-1.736-1.37-3.169-3.125-3.169zm-9.652-4.079a.364.364 0 00-.357.359l-.137 7.11.137 2.59c0 .193.165.331.357.331.192 0 .329-.165.356-.358l.165-2.59-.192-7.11a.318.318 0 00-.33-.332z" fill="#fff"/></svg>