<svg width="35" height="34" fill="none" xmlns="http://www.w3.org/2000/svg"><rect x=".264" width="34" height="34" rx="17" fill="#1ED760"/><path d="M25.077 24.516c-.304.507-.953.65-1.46.345-3.998-2.435-9.01-2.983-14.935-1.644-.568.122-1.136-.223-1.258-.791-.122-.568.223-1.136.791-1.258 6.473-1.482 12.033-.852 16.497 1.887.507.304.67.954.365 1.46zm2.07-4.627a1.343 1.343 0 01-1.826.447c-4.566-2.82-11.526-3.632-16.923-1.989-.71.203-1.44-.182-1.644-.872-.203-.71.183-1.44.893-1.644 6.169-1.867 13.839-.974 19.094 2.253.589.365.791 1.176.406 1.805zm.183-4.829c-5.48-3.247-14.509-3.55-19.744-1.968a1.584 1.584 0 01-1.988-1.055c-.264-.832.223-1.725 1.055-1.989 6.006-1.826 15.99-1.46 22.28 2.273.75.446.994 1.42.547 2.171a1.53 1.53 0 01-2.15.568z" fill="#fff"/></svg>