<svg width="35" height="35" fill="none" xmlns="http://www.w3.org/2000/svg"><rect x=".527" y=".264" width="34" height="34" rx="17" fill="url(#paint0_linear_68_461)"/><path d="M14.99 23.446c-.529 0-.44-.2-.621-.703l-1.554-5.113 11.96-7.095" fill="#C8DAEA"/><path d="M14.99 23.446c.407 0 .587-.186.815-.408l2.175-2.114-2.713-1.636" fill="#A9C9DD"/><path d="M15.267 19.289l6.572 4.855c.75.414 1.292.2 1.478-.696l2.676-12.607c.274-1.098-.419-1.596-1.136-1.27l-15.71 6.057c-1.072.43-1.066 1.028-.195 1.295l4.031 1.258 9.333-5.888c.44-.267.845-.124.513.171" fill="url(#paint1_linear_68_461)"/><defs><linearGradient id="paint0_linear_68_461" x1="23.195" y1="5.931" x2="14.695" y2="25.764" gradientUnits="userSpaceOnUse"><stop stop-color="#37AEE2"/><stop offset="1" stop-color="#1E96C8"/></linearGradient><linearGradient id="paint1_linear_68_461" x1="20.019" y1="15.971" x2="22.571" y2="21.779" gradientUnits="userSpaceOnUse"><stop stop-color="#EFF7FC"/><stop offset="1" stop-color="#fff"/></linearGradient></defs></svg>