<svg width="35" height="35" fill="none" xmlns="http://www.w3.org/2000/svg"><rect x=".264" y=".527" width="34" height="34" rx="17" fill="#000"/><path d="M11.825 19.87c.108-.89.473-1.388 1.16-1.899.985-.692 2.215-.3 2.215-.3v-2.322c.299-.008.598.01.893.053v2.988s-1.229-.392-2.213.3c-.688.511-1.054 1.01-1.16 1.9-.004.483.087 1.115.504 1.661a4.101 4.101 0 01-.315-.18c-.92-.619-1.088-1.545-1.084-2.2zm9.345-8.814c-.677-.742-.933-1.491-1.026-2.017h.852s-.17 1.38 1.068 2.736l.017.019a4.905 4.905 0 01-.911-.738zm4.103 2.104v2.927s-1.087-.042-1.891-.247c-1.123-.286-1.845-.725-1.845-.725s-.499-.313-.54-.335v6.046a5.86 5.86 0 01-.372 1.879c-.367.917-.933 1.519-1.038 1.642 0 0-.688.814-1.903 1.362-1.095.494-2.057.482-2.344.494 0 0-1.662.066-3.158-.906a6.284 6.284 0 01-.902-.724l.008.005c1.495.972 3.157.906 3.157.906.288-.013 1.25 0 2.344-.494 1.214-.548 1.904-1.362 1.904-1.362.103-.123.672-.726 1.037-1.643.28-.701.374-1.542.374-1.879v-6.045c.04.022.538.335.538.335s.722.44 1.846.725c.804.205 1.89.248 1.89.248v-2.295c.373.084.69.106.895.086z" fill="#FD355A"/><path d="M24.38 13.074v2.294s-1.087-.043-1.892-.247c-1.123-.286-1.845-.725-1.845-.725s-.499-.313-.539-.336v6.047a5.86 5.86 0 01-.373 1.879c-.367.917-.933 1.52-1.038 1.642 0 0-.689.814-1.903 1.362-1.095.495-2.056.482-2.344.495 0 0-1.662.066-3.158-.907l-.008-.005a5.729 5.729 0 01-.445-.483 5.74 5.74 0 01-.843-1.47c-.119-.341-.367-1.16-.333-1.954.06-1.401.552-2.26.683-2.476a5.887 5.887 0 011.326-1.553 5.596 5.596 0 011.576-.895 5.483 5.483 0 011.956-.393v2.322s-1.23-.39-2.214.3c-.688.511-1.053 1.01-1.16 1.9-.005.655.163 1.582 1.082 2.2.107.068.213.128.316.18.16.21.356.391.579.54.898.568 1.65.607 2.613.238.641-.247 1.124-.803 1.348-1.42.14-.384.139-.772.139-1.173V9.04h2.24c.092.526.348 1.275 1.025 2.017.272.28.578.528.911.738.099.102.603.606 1.25.915.334.16.687.283 1.05.365z" fill="#fff"/><path d="M9.1 21.91v.002l.056.15c-.006-.017-.027-.07-.056-.152zm4.144-6.167a5.594 5.594 0 00-1.576.894 5.884 5.884 0 00-1.326 1.556c-.13.215-.623 1.075-.683 2.476-.034.794.215 1.613.333 1.954v.003c.075.195.366.883.844 1.467.138.169.287.33.445.483a6.125 6.125 0 01-1.34-1.203 5.754 5.754 0 01-.84-1.463v-.003c-.12-.341-.369-1.16-.334-1.956.06-1.4.553-2.26.683-2.476a5.88 5.88 0 011.326-1.556 5.583 5.583 0 011.576-.894 5.58 5.58 0 012.85-.338v.662a5.482 5.482 0 00-1.958.394z" fill="#33F3ED"/><path d="M20.144 9.039h-2.24v11.398c0 .4 0 .787-.138 1.173-.226.616-.707 1.172-1.349 1.42-.962.37-1.715.329-2.613-.24a2.413 2.413 0 01-.58-.536c.765.39 1.45.384 2.298.058.64-.247 1.123-.804 1.348-1.42.141-.385.14-.772.14-1.173V8.32h3.092s-.035.283.042.72zm4.235 3.401v.635a5.01 5.01 0 01-1.049-.366c-.646-.31-1.15-.813-1.249-.915.114.072.233.137.355.196.787.376 1.561.489 1.943.45z" fill="#33F3ED"/></svg>