<svg width="34" height="35" fill="none" xmlns="http://www.w3.org/2000/svg"><rect y=".264" width="34" height="34" rx="17" fill="#1DA1F2"/><path d="M25.332 13.59v.53c0 5.499-4.197 11.847-11.847 11.847a11.96 11.96 0 01-6.402-1.859c.319.026.664.053.983.053a8.429 8.429 0 005.18-1.78 4.122 4.122 0 01-3.878-2.895c.265.053.504.08.796.08a3.71 3.71 0 001.09-.16 4.135 4.135 0 01-3.347-4.064v-.053a4.092 4.092 0 001.886.531 4.171 4.171 0 01-1.86-3.48c0-.77.213-1.487.558-2.098a11.848 11.848 0 008.58 4.357 3.771 3.771 0 01-.107-.957 4.16 4.16 0 014.17-4.17c1.196 0 2.285.505 3.029 1.302a8.461 8.461 0 002.656-1.01 4.292 4.292 0 01-1.833 2.311 7.978 7.978 0 002.391-.664 7.61 7.61 0 01-2.045 2.178z" fill="#fff"/></svg>