<svg width="34" height="34" fill="none" xmlns="http://www.w3.org/2000/svg"><rect width="34" height="34" rx="17" fill="#0DC143"/><path d="M24.615 9.358c-1.822-1.876-4.342-2.895-6.915-2.895-5.467 0-9.863 4.45-9.81 9.864 0 1.715.483 3.377 1.287 4.877l-1.394 5.093 5.2-1.34c1.447.804 3.055 1.179 4.663 1.179 5.415 0 9.81-4.45 9.81-9.863 0-2.627-1.018-5.092-2.841-6.915zM17.7 24.474c-1.447 0-2.894-.375-4.127-1.125l-.322-.161-3.109.804.804-3.056-.214-.321c-2.359-3.806-1.233-8.845 2.626-11.203 3.86-2.359 8.845-1.233 11.203 2.626 2.359 3.86 1.233 8.845-2.626 11.203-1.233.805-2.734 1.233-4.235 1.233zm4.717-5.95l-.59-.268s-.857-.375-1.393-.643c-.054 0-.107-.054-.16-.054a.774.774 0 00-.376.108s-.054.053-.804.91a.295.295 0 01-.268.162h-.054a.406.406 0 01-.214-.108l-.268-.107c-.59-.268-1.126-.59-1.555-1.018-.107-.107-.268-.215-.375-.322-.375-.375-.75-.804-1.018-1.286l-.054-.107c-.054-.054-.054-.108-.107-.215 0-.107 0-.214.053-.268 0 0 .215-.268.376-.429.107-.107.16-.268.268-.375.107-.16.16-.375.107-.536-.054-.268-.697-1.715-.858-2.037-.107-.16-.214-.214-.375-.268h-.59c-.107 0-.214.054-.321.054l-.054.053c-.107.054-.214.161-.322.215-.107.107-.16.214-.268.321a2.734 2.734 0 00-.59 1.662c0 .429.108.858.269 1.233l.053.16a8.93 8.93 0 001.984 2.735l.214.214c.161.16.322.268.429.429a9.578 9.578 0 003.86 2.037c.16.053.375.053.535.107h.537c.268 0 .59-.107.804-.214.16-.108.268-.108.375-.215l.107-.107c.107-.107.214-.161.322-.268.107-.107.214-.215.268-.322.107-.214.16-.482.214-.75v-.376s-.054-.053-.16-.107z" fill="#fff"/></svg>