<svg width="35" height="35" fill="none" xmlns="http://www.w3.org/2000/svg"><rect x=".446" y=".082" width="34" height="34" rx="17" fill="red"/><path fill-rule="evenodd" clip-rule="evenodd" d="M25.76 10.098c.91.245 1.628.962 1.873 1.873.455 1.662.438 5.128.438 5.128s0 3.449-.438 5.111a2.663 2.663 0 01-1.873 1.873c-1.663.438-8.315.438-8.315.438s-6.633 0-8.314-.455a2.662 2.662 0 01-1.873-1.873c-.437-1.645-.437-5.111-.437-5.111s0-3.449.437-5.111c.245-.91.98-1.646 1.873-1.89 1.663-.438 8.314-.438 8.314-.438s6.652 0 8.315.455zm-4.901 6.984l-5.532 3.185v-6.37l5.532 3.185z" fill="#fff"/></svg>